<?xml version="1.0" encoding="UTF-8"?>
<svg id="Layer_2" data-name="Layer 2" xmlns="http://www.w3.org/2000/svg" viewBox="0 0 1629.41 1054.78">
  <defs>
    <style>
      .cls-1 {
        opacity: .6;
      }

      .cls-2 {
        fill: #561c17;
      }

      .cls-3 {
        fill: #6aa319;
      }

      .cls-4 {
        fill: #008059;
      }

      .cls-5 {
        opacity: .3;
      }

      .cls-6 {
        fill: #7ac44c;
      }

      .cls-7 {
        fill: #fff;
      }

      .cls-8 {
        opacity: .4;
      }

      .cls-9 {
        fill: #b8e34d;
      }

      .cls-10 {
        fill: #4db05b;
      }

      .cls-11 {
        fill: #00613e;
      }

      .cls-12 {
        fill: #00a76e;
      }

      .cls-13 {
        fill: #ffc655;
      }

      .cls-14 {
        fill: #e4ecff;
      }

      .cls-15 {
        fill: #7fc064;
      }

      .cls-16 {
        fill: #8a4d27;
      }

      .cls-17 {
        fill: #e9633e;
      }

      .cls-18 {
        fill: #f4f4f4;
      }

      .cls-19 {
        fill: #f47c53;
      }

      .cls-20 {
        fill: #ffa076;
      }

      .cls-21 {
        opacity: .5;
      }
    </style>
  </defs>
  <g id="_Layer_" data-name="&amp;lt;Layer&amp;gt;">
    <g>
      <g class="cls-1">
        <path class="cls-15" d="M701.01,939.57s-106.99-555.67-302.42-535.18c-195.43,20.5,179.22,364.23,203.69,526.5l98.73,8.68Z"/>
      </g>
      <g>
        <path class="cls-10" d="M554.35,782.66S278.1,341.44,136.87,423.27c-141.23,81.83,263.93,253.35,339.46,384.42l78.03-25.02Z"/>
        <path class="cls-18" d="M510.83,797.04c-50.51-91.47-136.42-172.71-199.58-224.76-68.48-56.42-125.71-91.62-126.28-91.97l2.18-3.56c.57.35,58.05,35.7,126.75,92.31,63.45,52.28,149.75,133.91,200.58,225.96l-3.65,2.02Z"/>
      </g>
      <g>
        <path class="cls-15" d="M119.51,870.01c71.64,15.45,59.04,123.91,140.91,103.73,81.88-20.23,75.13-25.45,114.23,9.99,0,0,15.09,34.26,47.57,39.94,128.14,22.38,304.71-167.21,171.54-271.51-9.62-7.53-23.67-10.42-39.22-12.85-84.4-13.1-110.96,25.65-176.89-73.73-65.95-99.41-157.17,43.25-213.79,38.27-56.62-4.98-106.44-21.91-150.96,38.08-44.53,60.04,34.98,112.69,106.62,128.09Z"/>
        <g class="cls-21">
          <path class="cls-13" d="M552.02,890.02l2.72-4c-1.76-1.19-180.18-118.68-552.13-127.06l-.14,4.82c370.56,8.34,547.8,125.06,549.55,126.24Z"/>
          <path class="cls-13" d="M321.46,746.74c49.34-44.15,58.19-79.17,58.54-80.63l-4.69-1.1c-.08.35-8.98,35.13-57.06,78.15l3.21,3.58Z"/>
          <path class="cls-13" d="M312.64,798.76c13.93-24.28,12.84-59.24-3.15-101.12-11.98-31.36-28.27-55.95-28.43-56.19l-4.02,2.69c.64.96,63.46,96.42,31.42,152.25l4.19,2.37Z"/>
          <path class="cls-13" d="M214.78,790.46c5.87-4.89,9.05-8.06,9.19-8.21l-3.43-3.37c-.66.67-67.62,67.47-165.81,64.59l-.17,4.82c79.12,2.32,138.36-39.63,160.23-57.84Z"/>
          <path class="cls-13" d="M165.85,901.98c22.57-24.99,29.12-49.95,30.64-66.49,1.65-18-2.04-29.97-2.2-30.47l-4.61,1.48c.14.46,13.91,46.51-27.41,92.27l3.58,3.21Z"/>
        </g>
      </g>
      <g>
        <g>
          <path class="cls-15" d="M1280.63,307.82c12.93,13.84,21.18,13.84,26.6,8.77s5.97-13.29-6.96-27.13c-23.56-25.21-44.77-28.21-44.77-28.21,0,0,1.22,20.99,25.13,46.57Z"/>
          <path class="cls-15" d="M1254.12,403.97c7.76,17.28,15.56,19.95,22.33,16.91,6.77-3.04,9.95-10.65,2.19-27.92-14.14-31.47-33.23-41.18-33.23-41.18,0,0-5.63,20.26,8.71,52.19Z"/>
          <g>
            <path class="cls-15" d="M1162.96,734.11l3.51.72c.11-.54,11.55-54.98,52.51-127.56,37.79-66.96,109.16-163.5,234.55-243.14l-1.92-3.03c-126.08,80.07-197.83,177.18-235.82,244.54-41.19,73.04-52.71,127.92-52.82,128.46Z"/>
            <path class="cls-15" d="M1319.29,469.35l3.44-.99c-36.15-125.07,42.25-240.66,43.05-241.81l-2.95-2.04c-.81,1.17-80.17,118.11-43.55,244.84Z"/>
            <path class="cls-15" d="M1387.58,428.94c34.91,10.35,66.47.7,66.84.58l-1.08-3.42c-.4.13-40.84,12.45-80.11-6.53l-1.56,3.23c5.31,2.57,10.65,4.58,15.91,6.14Z"/>
            <path class="cls-15" d="M1461.5,345.64c-23.05,11.01-27.31,19.72-24.11,26.41,3.2,6.7,12.65,8.85,35.7-2.16,41.98-20.06,56.48-41.88,56.48-41.88,0,0-25.47-2.73-68.07,17.62Z"/>
            <path class="cls-15" d="M1448.5,415.67c-25.29,3.55-31.98,10.56-30.95,17.92,1.03,7.35,9.39,12.26,34.69,8.71,46.08-6.47,66.48-22.9,66.48-22.9,0,0-23.47-10.28-70.22-3.72Z"/>
            <path class="cls-15" d="M1368.66,363.77c-9.38,16.45-6.95,24.33-.5,28.01,6.45,3.68,14.47,1.77,23.85-14.69,17.09-29.97,13.68-51.12,13.68-51.12,0,0-19.69,7.39-37.03,37.8Z"/>
            <path class="cls-15" d="M1359.72,208.44c-12.77,22.12-11.35,31.71-4.92,35.42,6.43,3.71,15.44.14,28.21-21.98,23.26-40.3,22.86-66.49,22.86-66.49,0,0-22.54,12.17-46.14,53.06Z"/>
          </g>
        </g>
        <path class="cls-15" d="M1140.36,838.21s186.9-379.31,287.92-324.73c101.02,54.58-181.56,226.42-232.47,338.56l-55.45-13.84Z"/>
        <g>
          <path class="cls-9" d="M1195.81,792.71s255.41-323.45,359.51-246.89c104.1,76.56-229.53,176.66-300.26,273.31l-59.25-26.41Z"/>
          <path class="cls-18" d="M1228.83,807.77c47.63-67.64,122.23-124.18,176.43-159.7,58.76-38.51,106.82-61.28,107.3-61.5l-1.41-2.99c-.48.23-48.76,23.1-107.7,61.73-54.44,35.68-129.39,92.5-177.32,160.56l2.7,1.9Z"/>
        </g>
        <g>
          <path class="cls-10" d="M1531.46,898.8c-57.07,9.71-51.49,95.68-115.19,76.93-53.87-15.89-58.23-21.12-77.79-6.27-6.7,5.09-12.56,11.2-17.58,17.96-6.01,8.1-17.45,19.92-34.13,22.09-101.86,13.22-233.38-142.42-124.26-220.08,7.88-5.61,19.07-7.4,31.42-8.78,67.03-7.41,86.4,24.07,142.34-52.03,55.96-76.12,122.1,39.55,166.92,37.58,44.81-1.97,84.75-13.59,117.42,35.26,32.67,48.89-32.09,87.66-89.16,97.33Z"/>
          <g>
            <path class="cls-18" d="M1189.86,899.62l-1.98-3.25c1.43-.87,146.74-87.37,440.15-81.11l-.08,3.81c-292.31-6.24-436.66,79.68-438.09,80.55Z"/>
            <path class="cls-18" d="M1377.29,794.59c-37.1-36.52-42.67-64.45-42.89-65.62l3.74-.7c.05.28,5.66,28.02,41.82,63.61l-2.67,2.71Z"/>
            <path class="cls-18" d="M1382.15,835.93c-10-19.63-7.74-47.17,6.54-79.64,10.7-24.32,24.52-43.15,24.66-43.33l3.06,2.26c-.54.73-53.87,73.85-30.87,118.99l-3.39,1.73Z"/>
            <path class="cls-18" d="M1459.59,832.76c-4.43-4.06-6.8-6.67-6.91-6.79l2.84-2.54c.5.56,50.57,55.55,128.06,56.68l-.06,3.8c-62.44-.91-107.43-36.05-123.93-51.16Z"/>
            <path class="cls-18" d="M1493.66,922.41c-16.78-20.49-20.94-40.41-21.47-53.5-.58-14.26,2.81-23.56,2.95-23.95l3.57,1.32c-.13.36-12.83,36.2,17.89,73.72l-2.95,2.41Z"/>
          </g>
        </g>
      </g>
      <g>
        <path class="cls-20" d="M341.81,469.85c1.41.83,25.27,11.51,30.4,50.84,5.12,39.34-27.27,3.86-27.27,3.86l-3.13-54.7Z"/>
        <path class="cls-2" d="M303.37,997.06s.34,13.68,9.6,17.54c9.26,3.86,36.08,7.34,26.05,16.14-5.75,5.05-32.85,1.79-40.5,1.79-7.65,0-14.84,3.33-20.52-1.79-6.26-5.63,0-33.67,0-33.67,0,0,6.6,3.44,12.54,3.29,8.56-.22,12.83-3.28,12.83-3.28Z"/>
        <path class="cls-2" d="M197.07,997.06s.34,13.68,9.6,17.54c9.26,3.86,36.08,7.34,26.05,16.14-5.75,5.05-32.85,1.79-40.5,1.79-7.65,0-14.84,3.33-20.52-1.79-6.26-5.63,0-33.67,0-33.67,0,0,6.6,3.44,12.54,3.29,8.56-.22,12.83-3.28,12.83-3.28Z"/>
        <path class="cls-11" d="M372.17,622.06s1.71,57.26-16.56,167.1c-13.19,79.3-28.77,159.21-36.41,197.52-2.73,13.7-14.26,23.72-27.92,24.27l-7.34.29c-14.77.59-26.76-12.09-25.68-27.18l18.54-259.18,4.57-85.31,90.8-17.53Z"/>
        <path class="cls-2" d="M204.99,672.45c.84,6.97,40.25,6.12,88.5.02,48.25-6.11,85.8-16.56,84.96-23.53-.84-6.97-39.76-7.82-88.01-1.71-48.25,6.11-86.29,18.25-85.45,25.22Z"/>
        <path class="cls-11" d="M316.77,662.96l-103.01,330.9c-4.31,13.85-16.78,23.34-30.99,23.58l-6.19.11c-14.62.25-25.79-13.27-23.13-27.98l56.35-310.92c.82-3.7,3.55-6.63,7.11-7.66,19.32-5.57,101.75-21.71,99.85-8.03Z"/>
        <path class="cls-13" d="M221.1,481.94s13.71-38.56,62.53-36.81c48.82,1.75,85.69,65.91,94.82,203.8,0,0-79.95-17.53-173.6,23.37,0,0-5.19-134.16,16.25-190.36Z"/>
        <path class="cls-13" d="M186.81,479.62l34.59,22.14s88.91,8.89,112.51,4.61c23.6-4.28,27.28-21.64,27.28-21.64,0,0-22.45-30.8-65.18-38.45-4.01-.72-8.06-.84-12.38-1.15-7.25-.51-14.49-.29-21.6.47-42.21,4.56-75.22,34.01-75.22,34.01Z"/>
        <path class="cls-2" d="M270.74,810.86l22.15-67.34c4.98-15.14,15.23-27.78,28.85-35.59l-.86-1.5c-13.99,8.02-24.52,21-29.63,36.55l-22.15,67.34,1.65.54Z"/>
        <g>
          <path class="cls-2" d="M317.11,436.55c.27-.06,6.56-1.6,8.44-6.11.99-2.38.54-5.13-1.33-8.17-.83-1.35-1.6-2.58-2.31-3.7-4.89-7.8-6.54-10.42-5.26-16.53l-.56-.12c-1.33,6.32.48,9.22,5.33,16.94.7,1.12,1.47,2.35,2.3,3.7,1.77,2.88,2.21,5.45,1.29,7.65-1.76,4.24-7.98,5.76-8.04,5.78l.13.55Z"/>
          <path class="cls-2" d="M316.37,401.98s-2.16,9.79,4.32,20.04c6.49,10.25-.57,17.74-9.36,13.8-8.79-3.94-12.14,7.26-23.37,1.07-11.23-6.19,28.41-34.91,28.41-34.91Z"/>
          <path class="cls-20" d="M264.45,445.28c4.85-.52,9.07-3.57,11-8.05l6.05-14.05,1.76-4.08,10.32-23.98-1.79,24.85-1.08,14.92-.31,4.25c-.25,3.47,2.18,6.54,5.6,7.15h.06c1.84,3,4.37,9.07-3.21,11.48-8.91,2.84-23.32-4.18-28.49-12.49h.08Z"/>
          <path class="cls-2" d="M281.47,422.76c0,.14.01.27.03.41.59,8.01,9.16,11.75,9.16,11.75l.05-.04,1.08-14.92c-2.62-.96-6.35-1.95-8.53-.87-1.14.56-1.86,1.69-1.78,3.67Z"/>
          <ellipse class="cls-20" cx="294.71" cy="399.09" rx="23.35" ry="28.81"/>
          <path class="cls-20" d="M274.48,403.44c2.64,2.53,6.34,2.78,8.26.58,1.92-2.21,1.33-6.04-1.32-8.57s-6.34-2.78-8.26-.58c-1.92,2.21-1.33,6.04,1.32,8.57Z"/>
          <path class="cls-17" d="M307.28,417.73s-7.98.18-15.95-2.62c0,0-.66,7.86,7.98,8.39,5.02.31,7.98-5.77,7.98-5.77Z"/>
          <path class="cls-7" d="M307.28,417.73s-1.93,1.6-6.43,1.58-9.52-4.2-9.52-4.2c0,0,9.61,2.64,15.95,2.62Z"/>
          <path class="cls-2" d="M296.97,399.37c.16-.04.29-.15.35-.32.11-.27-.02-.58-.29-.69-.16-.06-3.73-1.9-6.88,1.53-.2.22-.19.55.02.75.21.2.51.15.75-.02,2.44-1.64,5.58-1.33,5.71-1.28.11.04.23.05.34.02Z"/>
          <path class="cls-2" d="M292.76,405.21c-.04,1.27.67,2.32,1.59,2.35.92.03,1.7-.97,1.74-2.24.04-1.27-.67-2.32-1.59-2.35-.92-.03-1.7.97-1.74,2.24Z"/>
          <path class="cls-2" d="M315.92,402.14c.16.02.33-.03.45-.16.2-.21.2-.55,0-.75-.12-.12-2.73-3.18-6.94-1.2-.27.12-.39.43-.27.7.12.27.41.33.7.27,2.88-.59,5.66.89,5.77.99.09.08.19.13.3.15Z"/>
          <path class="cls-2" d="M309.81,405.93c-.52,1.16-.26,2.4.58,2.78.84.38,1.94-.25,2.46-1.41.52-1.16.26-2.4-.58-2.78-.84-.38-1.94.25-2.46,1.41Z"/>
          <path class="cls-2" d="M304.62,375.51s-.5,9.99-12.98,11.7c-12.48,1.7-21.09,6.98-19.41,15.98,1.68,8.99,21.8,27.65,7.01,34.87-14.79,7.23-11.64-6.25-27.67-3.12-16.03,3.12-18.92-18.28-7.88-30.71,11.04-12.42,6.57-45.3,47.96-43.84,41.39,1.46,26.23,34.48,26.23,34.48,0,0-13.27-8.32-13.24-19.36Z"/>
          <path class="cls-7" d="M274.98,439.9c3.11-1.26,5.03-3.13,5.69-5.57,1.82-6.7-5.99-16.83-12.88-25.76-1.81-2.35-3.53-4.57-5.04-6.69-4.21-5.88-4.58-12.62-.97-18.03,3.96-5.93,11.49-8.43,19.66-6.54,8.14,1.89,13.75.18,17.01-1.58,3.55-1.92,5.14-4.25,5.21-4.34l-.28-.19s-1.62,2.37-5.1,4.24c-3.21,1.73-8.73,3.4-16.76,1.54-8.31-1.93-15.98.63-20.02,6.68-3.63,5.44-3.26,12.5.98,18.41,1.52,2.12,3.24,4.35,5.05,6.7,6.84,8.87,14.6,18.93,12.83,25.47-.64,2.36-2.44,4.11-5.49,5.34l.13.31Z"/>
          <path class="cls-3" d="M314.3,421.02c-1.24,0-2.45-.35-3.57-1.05-5.02-3.12-6.91-12.55-4.22-21.01h0c1.65-5.18,4.74-9.05,8.24-10.35,2.09-.77,4.2-.59,6.07.6,5.02,3.11,6.91,12.52,4.22,20.99-1.65,5.2-4.74,9.07-8.24,10.36-.83.3-1.67.45-2.49.45ZM307.5,399.29c-2.56,8.02-.86,16.91,3.78,19.81,1.57.98,3.36,1.13,5.15.5,3.21-1.19,6.06-4.82,7.61-9.7,2.56-8.03.87-16.92-3.78-19.81-1.58-.98-3.35-1.14-5.16-.5-3.21,1.19-6.06,4.81-7.61,9.7h0Z"/>
          <g class="cls-5">
            <path class="cls-7" d="M279.49,393.46c-1.87,8.22,1.12,17.06,6.69,19.72,5.57,2.67,11.6-1.84,13.47-10.06,1.87-8.22-1.12-17.06-6.69-19.72-5.57-2.67-11.6,1.84-13.47,10.06Z"/>
          </g>
          <g class="cls-5">
            <path class="cls-7" d="M306.28,399.65c-1.88,8.26.62,17.22,5.59,20.01,4.96,2.79,10.51-1.65,12.39-9.91,1.88-8.26-.62-17.22-5.59-20.01s-10.51,1.65-12.39,9.91Z"/>
          </g>
          <path class="cls-3" d="M290.12,414.21c-1.25,0-2.51-.29-3.72-.87-6.14-2.87-9.47-12.36-7.42-21.16h0c1.18-5.11,3.91-9.04,7.49-10.78,2.5-1.2,5.11-1.22,7.58-.06,6.13,2.88,9.46,12.37,7.42,21.16-1.19,5.12-3.93,9.05-7.52,10.8-1.26.6-2.55.92-3.84.92ZM290.33,381.52c-1.15,0-2.3.27-3.41.81-3.25,1.59-5.85,5.36-6.94,10.09h0c-1.94,8.33,1.13,17.3,6.85,19.99,2.17.99,4.48.98,6.67-.04,3.26-1.58,5.86-5.36,6.97-10.11,1.93-8.33-1.14-17.3-6.85-19.99-1.07-.5-2.18-.75-3.28-.75Z"/>
          <path class="cls-3" d="M307.38,402.73c-.22,0-.44-.08-.62-.23h0c-.1-.09-2.62-2.06-6.96-1.23-.51.08-1.04-.24-1.14-.77-.11-.53.24-1.04.77-1.13,5.24-1.1,8.43,1.52,8.57,1.62.41.35.47.96.12,1.37-.19.24-.47.36-.74.36Z"/>
        </g>
        <path class="cls-2" d="M186.32,480.39c-1.2,3.48,7.85,10,20.2,14.56,12.36,4.56,23.35,5.43,24.55,1.95,1.2-3.48-7.85-10-20.2-14.56-12.36-4.56-23.35-5.43-24.55-1.95Z"/>
        <path class="cls-20" d="M271.15,600.86l.41-25.28c.06-3.45-2.6-6.35-6.05-6.6-17.52-1.25-29.79-6.69-36.51-16.19-9.33-13.19-8.35-33.69-5.75-47.9,1.33-7.27-1.07-12.14-9.86-16.8,0,0-7.56-4.16-16.88-5.75-3.73-.64-7.44.86-8.4,4.53-1.51,5.73-3.46,14.65-4.39,25.14-2.21,24.92,2.6,46.6,13.9,62.7,13.88,19.75,36.25,30.68,66.55,32.54,3.72.23,6.9-2.67,6.96-6.4Z"/>
        <g class="cls-21">
          <path class="cls-19" d="M199.3,564.04c-3.12-3.88-3.42-8.84-.67-11.06,2.76-2.22,7.54-.87,10.66,3.01,3.12,3.88,3.42,8.84.67,11.06-.9.72-2.01,1.07-3.22,1.07-2.48,0-5.34-1.46-7.44-4.08ZM199.69,554.31c-1.99,1.61-1.57,5.58.92,8.67h0c2.49,3.1,6.28,4.35,8.28,2.75,1.99-1.61,1.57-5.58-.92-8.67-1.76-2.18-4.15-3.45-6.11-3.45-.82,0-1.57.22-2.16.7Z"/>
        </g>
        <path class="cls-11" d="M243.78,664.9s96.29-18.39,127.52-9.72l-14.97,22.19-55.66,3.15-56.89-15.62Z"/>
        <path class="cls-3" d="M276.65,520.76l6.99,72.36c.27,2.83,2.53,5.07,5.36,5.31l53.88,4.7c.55.05,1.1.02,1.64-.09l10.69-2.08c1.13-.22,2.17-.76,3-1.57l24.96-24.34c1.27-1.24,1.91-2.98,1.76-4.74l-4.93-56.38c-.4-4.57-5.63-6.96-9.35-4.26l-21.63,15.7c-.59.43-1.26.74-1.96.93l-10.81,2.85c-1.05.28-2.15.26-3.19-.05l-48.84-14.57c-4.02-1.2-7.97,2.05-7.56,6.22Z"/>
        <path class="cls-2" d="M334.64,529.58l13.48-3.56,8.83,74.61s-3.31,5.15-13.24,2.57l-9.07-73.62Z"/>
        <g>
          <path class="cls-20" d="M259.09,567.39s6.15-18.62,16.69-23.18c10.54-4.56,27.44-2.42,21.51,1.79-5.93,4.21-15,7.5-15,7.5,0,0,19.7-6.12,19.13-.89-.56,5.23-17.75,10.38-17.75,10.38,0,0,24.02-5.41,21.89-.65-2.13,4.76-20.41,8.75-20.41,8.75,0,0,22.55-4.14,19.94,1.33-2.61,5.48-18.66,3.3-19.22,8.53-.56,5.23-4.57,25.8-19.29,26l-7.5-39.57Z"/>
          <path class="cls-19" d="M275.27,557.83c1.43-3.01,7.03-3.9,7.09-3.91l-.13-.84c-.25.04-6.1.97-7.72,4.38l.76.36Z"/>
          <path class="cls-19" d="M275.18,568.2c2.99-3.99,8.5-4.78,8.56-4.78l-.11-.84c-.24.03-5.93.84-9.12,5.12l.68.51Z"/>
          <path class="cls-19" d="M277.25,575.89c1.25-3.32,7.91-4.37,7.97-4.38l-.13-.84c-.29.04-7.22,1.14-8.64,4.92l.79.3Z"/>
        </g>
        <path class="cls-14" d="M287.8,515.6s4.18-2.91,13.84-.98c9.65,1.93,24,6.21,29.79,6.9,5.79.69,8,3.31,8,3.31,0,0-1.72-4.45,5.14-6.85,6.86-2.39,19.41-9.55,23.62-6.52l-20.06,14.56-13.48,3.56-46.85-13.97Z"/>
        <path class="cls-14" d="M338.88,524.92l1.09-.17c-.05-.35-.74-3.44-9.07-5.14-1.82-.37-4.32-1.05-7.22-1.83-9.98-2.69-25.06-6.77-32.52-3.58l.43,1.01c7.11-3.04,21.97.97,31.8,3.63,2.92.79,5.44,1.47,7.29,1.84,7.57,1.54,8.19,4.2,8.2,4.23Z"/>
        <path class="cls-20" d="M391.45,553.02s1.38,10.81-7.77,11.84c-11.66,1.31-27.63-9.13-20.26-10.07,6.54-.83,16.14.39,16.14.39,0,0-24.39-3.47-22.12-8.66,2.27-5.19,23.21-1.9,23.21-1.9,0,0-23.51-5.78-19.87-9.89,3.64-4.11,22.67-1.25,22.67-1.25,0,0-23.22-4.32-18.89-8.99,4.33-4.67,15.98.18,21.32,1.03,5.05.8,6.29,4.55,5.34,9.72,0,0,1.85,5.81.44,9-.54,1.22.45,2.68.45,3.64,0,1.84-.66,5.14-.66,5.14Z"/>
      </g>
      <g>
        <g>
          <g>
            <path class="cls-16" d="M1234.48,439.79l-357.14-7.78-404.43,17.24-.61,33.06,391.09-24.55c39.35.86,70.54,39.45,69.68,86.2h0c-.87,46.75-33.47,83.96-72.81,83.1l-390.48-8.51-.45,24.42,761.08,16.59c51.08,1.11,93.39-47.18,94.52-107.87h0c1.12-60.69-39.37-110.79-90.45-111.9Z"/>
            <path class="cls-16" d="M967.79,543.9h0c1.12-60.69-39.37-110.79-90.45-111.9l-404.43,17.24-.61,33.06,391.09-24.55c39.35.86,70.54,39.45,69.68,86.2h0c-.87,46.75-33.47,83.96-72.81,83.1l-390.48-8.51-.45,24.42,403.95,8.8c51.08,1.11,93.39-47.18,94.52-107.87Z"/>
            <path class="cls-18" d="M863.39,457.85l-391.09,24.46h0c35.38,5.62,46.52,44.37,51.68,65.06,10.45,41.95-18.63,66.63-54.19,70.7v.58s390.46,8.51,390.46,8.51c39.35.86,71.95-36.35,72.81-83.1h0c.87-46.75-30.33-85.35-69.68-86.2Z"/>
            <g class="cls-5">
              <rect class="cls-2" x="682.21" y="413.62" width="2.22" height="315.25" transform="translate(97.27 1241.91) rotate(-88.75)"/>
            </g>
            <g class="cls-5">
              <rect class="cls-2" x="523.91" y="542.32" width="242.08" height="2.22" transform="translate(-17.3 21.23) rotate(-1.86)"/>
            </g>
          </g>
          <g>
            <path class="cls-3" d="M694.05,648.89l308.07-1.87,348.57,19.75.15,27.75-336.98-25.71c-33.94.21-61.28,32.18-61.07,71.42h0c.21,39.24,27.9,70.88,61.84,70.67l336.83-2.04.11,20.49-656.52,3.98c-44.06.27-80-40.81-80.28-91.74h0c-.28-50.93,35.21-92.44,79.27-92.71Z"/>
            <path class="cls-3" d="M922.85,739.73h0c-.28-50.93,35.21-92.44,79.27-92.71l348.57,19.75.15,27.75-336.98-25.71c-33.94.21-61.28,32.18-61.07,71.42h0c.21,39.24,27.9,70.88,61.84,70.67l336.83-2.04.11,20.49-348.45,2.11c-44.06.27-80-40.81-80.28-91.74Z"/>
            <path class="cls-18" d="M1013.86,668.89l336.98,25.63h0c-30.58,4.25-40.63,36.62-45.31,53.91-9.49,35.06,15.3,56.14,45.93,60.03v.49s-336.83,2.04-336.83,2.04c-33.94.21-61.63-31.44-61.84-70.67h0c-.21-39.24,27.13-71.21,61.07-71.42Z"/>
            <rect class="cls-2" x="1031.92" y="765.45" width="271.88" height="1.89" transform="translate(-4.62 7.09) rotate(-.35)"/>
            <path class="cls-11" d="M953.68,810.5c1.18.03,2.36-.46,3.09-1.41,1.16-1.51.76-3.61-.89-4.69-.27-.17-26.34-17.78-29.37-64.96-3.01-46.87,33.27-63.76,33.64-63.93,1.82-.82,2.55-2.83,1.65-4.5-.91-1.67-3.12-2.35-4.93-1.54-1.68.75-40.98,19.05-37.69,70.31,3.26,50.68,31.3,69.33,32.49,70.1.61.39,1.31.59,2,.61Z"/>
            <rect class="cls-2" x="1200.32" y="639.16" width="1.89" height="208.79" transform="translate(402.58 1908.89) rotate(-87.33)"/>
            <path class="cls-11" d="M832.98,797.51c-.42-.54-41.28-55.23-.68-112.98.69-.98,1.77-1.56,2.93-1.57l62.47-.38c1.5.12,2.64.79,3.28,2.08.64,1.28.54,2.84-.26,4.03-.18.28-18.26,27.71-12.61,54.75,5.87,28.09,16.68,49.16,16.79,49.37.62,1.2.6,2.65-.06,3.83-.66,1.17-1.85,1.9-3.14,1.91l-65.85.4s-.08,0-.12,0c-1.07-.03-2.08-.56-2.76-1.44ZM880.94,745.12c-4.7-22.47,4.68-44.39,10.18-54.74l-54,.33c-32.4,47.86-5.43,91.87.52,100.49l58.1-.35c-3.74-8.32-10.49-25.04-14.82-45.73Z"/>
          </g>
          <g>
            <path class="cls-11" d="M1128.99,831.87l-359.01.38-406.04,24.57.03,30.64,392.49-31.06c39.55-.04,71.66,35.05,71.7,78.38h0c.05,43.33-31.98,78.49-71.53,78.53l-392.52.42.02,22.63,765.07-.82c51.34-.05,92.92-45.69,92.86-101.94h0c-.06-56.24-41.73-101.8-93.07-101.74Z"/>
            <path class="cls-11" d="M863.06,933.99h0c-.06-56.24-41.73-101.8-93.07-101.74l-406.04,24.57.03,30.64,392.49-31.06c39.55-.04,71.66,35.05,71.7,78.38h0c.05,43.33-31.98,78.49-71.53,78.53l-392.52.42.02,22.63,406.07-.43c51.34-.05,92.92-45.69,92.86-101.94Z"/>
            <path class="cls-18" d="M756.47,856.49l-392.49,30.97h0c35.66,4.45,47.62,40.12,53.2,59.17,11.32,38.64-17.41,62.12-53.07,66.65v.54s392.52-.42,392.52-.42c39.55-.04,71.58-35.2,71.53-78.53h0c-.05-43.33-32.15-78.42-71.7-78.38Z"/>
            <g class="cls-5">
              <rect class="cls-2" x="419.34" y="964.26" width="316.82" height="2.22" transform="translate(-1.03 .62) rotate(-.06)"/>
            </g>
            <g class="cls-21">
              <path class="cls-6" d="M827.91,1009.24c.67,0,1.35-.17,1.97-.54,1.38-.82,33.91-20.62,37.06-74.43,1.67-28.47-10.6-47.22-21.19-57.94-11.43-11.57-23.19-16.39-23.69-16.59-2-.8-4.27.16-5.07,2.16-.8,2,.16,4.26,2.15,5.07h0c.11.04,10.97,4.54,21.27,15.06,13.63,13.92,19.94,31.34,18.74,51.79-2.9,49.44-32.95,67.99-33.26,68.18-1.84,1.1-2.45,3.49-1.35,5.34.73,1.23,2.02,1.91,3.35,1.91Z"/>
            </g>
            <g class="cls-5">
              <rect class="cls-2" x="417.02" y="939.31" width="243.28" height="2.22" transform="translate(-47.33 28.74) rotate(-2.93)"/>
            </g>
            <g class="cls-21">
              <path class="cls-6" d="M890.79,980.42c-5.14-7.2-6.46-16.05-3.63-24.27,2.16-6.26,3.98-12.55,5.42-18.7,1.86-7.93,1.53-16.66-.98-25.95-2.16-8.02-.44-16.49,4.72-23.25,5.81-7.59,15.28-12.12,25.34-12.14l17.31-.02h.04c11.22,0,21.48,5.44,26.78,14.2,22.16,36.62,9.8,70.5.46,87.43-5.28,9.59-15.85,15.55-27.56,15.56l-21.93.02h-.04c-10.48,0-20.17-4.82-25.94-12.9ZM938.98,884.28l-17.31.02c-7.53,0-14.58,3.34-18.85,8.93-3.66,4.79-4.84,10.52-3.32,16.14,2.87,10.61,3.22,20.69,1.05,29.95-1.5,6.42-3.41,12.98-5.66,19.5-1.99,5.77-1.08,11.75,2.55,16.85,4.23,5.93,11.44,9.47,19.28,9.47h.03l21.93-.02c8.74,0,16.56-4.35,20.41-11.33,8.48-15.39,19.73-46.15-.3-79.25-3.83-6.33-11.41-10.26-19.78-10.26h-.03Z"/>
            </g>
          </g>
        </g>
        <g>
          <path class="cls-2" d="M1071.72,623.25s-.38,12.75,8.05,16.82c8.42,4.06,33.21,8.67,23.44,16.35-5.61,4.41-30.67,0-37.8-.4-7.12-.39-13.98,2.35-19.01-2.71-5.54-5.56,1.71-31.35,1.71-31.35,0,0,5.97,3.54,11.51,3.7,7.98.23,12.11-2.41,12.11-2.41Z"/>
          <path class="cls-2" d="M1149.32,623.17s-.38,12.75,8.05,16.82c8.42,4.06,33.21,8.67,23.44,16.35-5.61,4.41-30.67,0-37.8-.4-7.12-.39-13.98,2.35-19.01-2.71-5.54-5.56,1.71-31.35,1.71-31.35,0,0,5.97,3.54,11.51,3.7,7.98.23,12.11-2.41,12.11-2.41Z"/>
          <path class="cls-4" d="M1158.55,602.11c-6.31-83.55-7.79-139.92-34.23-176.14-28.93-39.64-106.51-67.67-136.42-69.42-48.78-2.85-71.76,4.41-71.76,4.41-36.61,76.14,20.74,86.24,63.16,88.32,1.4.07,2.81.15,4.22.24,25.68,1.62,71.35,8.14,88.63,33.66,13.69,20.21,23.19,48.58,27.19,121.76.77,14.04,12.55,24.93,26.61,24.55,0,0,34.87,2.67,32.6-27.38Z"/>
          <path class="cls-4" d="M1089.32,606.41c.83-83.78,3.43-126.55-21.71-163.68-16.15-23.85-40.45-41.86-72.21-53.51-22.67-8.32-49.33-13.42-79.24-15.17-48.78-2.85-70.7-8.74-70.7-8.74-39.48,97.46,104.93,76.77,142.52,118.3,16.38,18.09,36.68,52.5,40.68,125.69.77,14.04,12.55,24.93,26.61,24.55,0,0,33.74,3.21,34.05-27.42Z"/>
          <path class="cls-2" d="M1089.08,524.12l.56-.03c-.02-.5-2.51-50.31-10.88-67.77-10.6-22.09-41.33-45.15-73.07-54.83l-.16.54c31.6,9.64,62.19,32.57,72.73,54.54,8.33,17.36,10.81,67.06,10.83,67.56Z"/>
          <path class="cls-20" d="M1037.23,294.12c18.54,3.52,39.52.21,62.45-9.88,17.31-7.62,29.59-16.55,30.1-16.93l-20.25-29,10.13,14.5-10.1-14.52c-10.55,7.66-43.25,26.23-67.7,20.22-11.1-2.73-19.66-10.42-26.18-23.51l-31.23,16.43c11.09,22.27,28.07,36.75,49.08,41.88,1.22.3,2.46.57,3.7.8Z"/>
          <path class="cls-3" d="M880.07,210.55s20.75-35.47,68.59-24.59c47.84,10.89,67.33,59.74,70.75,177.08,0,0-44.29-1.63-160.65,36.97-13.78,4.57-34,.95-26.92-22.53,13.15-43.64,25.9-130.7,48.22-166.93Z"/>
          <path class="cls-3" d="M827.44,220.91l49.21,9.25s86.04,25.45,110.13,25.65c24.09.2,34.06-17.42,34.06-17.42,0,0-19.43-32.98-60.14-48.53-3.82-1.47-7.83-2.77-12.03-3.89-7.05-1.87-14.22-3.5-21.4-3.58-81.22-.93-99.82,38.52-99.82,38.52Z"/>
          <path class="cls-2" d="M827.44,220.91c-1.06,3.88,9.25,10.35,23.04,14.46,13.79,4.11,25.83,4.29,26.89.41,1.06-3.88-9.25-10.35-23.04-14.46-13.79-4.11-25.83-4.29-26.89-.41Z"/>
          <path class="cls-20" d="M927.35,182.39c5.26.43,10.35-1.95,13.3-6.32l9.26-13.69,2.69-3.97,15.79-23.36-6.91,26.01-4.15,15.61-1.18,4.45c-.97,3.63.99,7.38,4.5,8.72l.06.02c1.35,3.54,2.81,10.5-5.72,11.53-10.03,1.21-23.9-9.14-27.71-19h.08Z"/>
          <path class="cls-2" d="M939.4,125.04s.2,4.52-3.98,12.92c-6.11,12.29,7.69,20.52,12.19,17.54.56-.37,4.13-22.56,4.13-22.56l-4.21-3.72-8.14-4.18Z"/>
          <path class="cls-2" d="M949.96,161.94c-.02.15-.04.29-.06.44-.99,8.62,7.35,14.32,7.35,14.32l.06-.04,4.15-15.61c-2.59-1.55-6.35-3.35-8.88-2.65-1.32.37-2.31,1.41-2.63,3.53Z"/>
          <ellipse class="cls-20" cx="968.77" cy="139.49" rx="31.11" ry="25.22" transform="translate(650.81 1065.17) rotate(-79.24)"/>
          <path class="cls-2" d="M983.05,117.89c-.87.81.04,17.27-29.8,15.49-29.85-1.78-5.63-33.8,16.02-30.51,31.26,4.75,31.81,26.47,27.4,33.42-4.41,6.94-13.62-18.39-13.62-18.39Z"/>
          <path class="cls-2" d="M941.82,90.03s11.42,11.24-.21,17.57c-11.63,6.33-40,4.67-35.09,20.01,4.91,15.34,7.53,37.18-6.54,37.17-14.08,0-22.44-2.66-30.03,7.1-7.59,9.76-30.98-1.62-26.52-14.11s-14.52-27.84-3.21-37.96c11.31-10.12,35.41-16.21,43.89-30.61,8.47-14.4,48.43-7.87,57.73.84Z"/>
          <path class="cls-2" d="M957.41,128.99s-14.29,10.29-12.6,23.9c0,0-5.47-8.86-5.09-11.7s4.15-12.67,4.15-12.67l13.54.47Z"/>
          <path class="cls-20" d="M946.43,140.02c2.3,3.21,6.17,4.23,8.65,2.28,2.48-1.95,2.63-6.14.33-9.36-2.3-3.21-6.17-4.23-8.65-2.28-2.48,1.95-2.63,6.14-.33,9.36Z"/>
          <path class="cls-7" d="M870.45,172c3.67-13.79,11.79-14.41,20.4-15.07,3.41-.26,6.94-.53,10.31-1.61,1.6-.51,2.72-1.4,3.33-2.65,1.53-3.11-.24-8-2.29-13.67-2.99-8.26-6.37-17.62-1.32-24.89,9.79-14.08,24.6-14.69,24.74-14.69,8.62.54,13.08-.42,13.6-2.96.52-2.56-3.52-5.41-5-5.93-12.06-4.22-26.01-5.92-46.22,10.05-15.94,12.6-14.84,19.68-13.46,28.66.31,1.98.62,4.03.77,6.25.11,1.76-.25,3.07-1.13,3.99-1.95,2.06-6.29,2.01-10.49,1.95-5.43-.06-11.05-.13-12.56,4.19-1.18,3.38.16,7.39,1.47,11.28,1.33,3.98,2.59,7.74,1.04,10.37-1.01,1.72-3.17,2.86-6.61,3.49l.19,1.02c3.74-.69,6.14-1.99,7.31-3.98,1.79-3.04.46-7.01-.95-11.22-1.25-3.72-2.54-7.56-1.47-10.6,1.27-3.62,6.27-3.56,11.57-3.5,4.42.05,9,.11,11.26-2.28,1.07-1.13,1.54-2.73,1.41-4.77-.15-2.27-.47-4.34-.78-6.34-1.33-8.64-2.39-15.46,13.07-27.68,19.81-15.66,33.45-14,45.23-9.88,1.43.5,4.68,3.03,4.33,4.74-.18.87-1.75,2.81-12.56,2.13-.2,0-15.53.64-25.61,15.14-5.36,7.71-1.72,17.76,1.2,25.83,1.97,5.45,3.67,10.15,2.34,12.86-.49.99-1.38,1.69-2.72,2.12-3.25,1.04-6.72,1.31-10.07,1.56-8.98.69-17.47,1.34-21.32,15.84l1,.27Z"/>
          <path class="cls-7" d="M958.22,124.23c9.26,0,15.21-6.38,15.27-6.45l-.7-.64c-.07.08-7.17,7.66-17.83,5.87l-.16.93c1.18.2,2.32.29,3.41.29Z"/>
          <path class="cls-3" d="M983.74,162.16c-5.31-2.08-7.66-8.91-5.25-15.22,1.29-3.38,3.76-6.08,6.77-7.41,2.4-1.06,4.97-1.15,7.24-.26,5.31,2.08,7.66,8.91,5.25,15.22-1.29,3.38-3.76,6.08-6.77,7.41-1.86.82-3.83,1.06-5.68.71-.53-.1-1.05-.25-1.56-.45ZM985.5,140.09c-2.86,1.26-5.21,3.84-6.45,7.08-2.3,6-.1,12.48,4.9,14.44,2.12.83,4.52.74,6.77-.25,2.86-1.26,5.21-3.84,6.45-7.08,2.3-6,.1-12.48-4.9-14.44-.47-.18-.95-.32-1.45-.42-1.73-.33-3.57-.1-5.32.67Z"/>
          <path class="cls-3" d="M960.4,154.23c-5.31-2.08-7.66-8.91-5.25-15.22h0c1.29-3.38,3.76-6.08,6.77-7.41,2.4-1.06,4.97-1.15,7.24-.26,5.31,2.08,7.66,8.91,5.25,15.22-1.29,3.38-3.76,6.08-6.77,7.41-1.86.82-3.83,1.06-5.68.71-.53-.1-1.05-.25-1.56-.45ZM962.17,132.16c-2.86,1.26-5.21,3.84-6.45,7.08h0c-2.29,6-.1,12.48,4.9,14.44,2.12.83,4.52.74,6.77-.25,2.86-1.26,5.21-3.84,6.45-7.08,2.3-6,.1-12.48-4.9-14.44-.47-.18-.95-.32-1.45-.42-1.73-.33-3.57-.1-5.32.67Z"/>
          <path class="cls-3" d="M981.21,148.64c.09.02.19,0,.27-.08.12-.12.13-.31,0-.43-.12-.12-2.89-2.95-8.62-3.17-.17,0-.31.12-.31.29,0,.17.12.31.29.31,5.47.21,8.18,2.96,8.2,2.99.05.05.1.08.16.09Z"/>
          <path class="cls-17" d="M978.69,161.87s-8.5-1.41-16.4-6c0,0-2.29,8.21,6.77,10.51,5.27,1.34,9.63-4.51,9.63-4.51Z"/>
          <path class="cls-7" d="M978.69,161.87s-2.37,1.31-7.14.38c-4.77-.93-9.25-6.38-9.25-6.38,0,0,9.67,4.74,16.4,6Z"/>
          <path class="cls-2" d="M971.11,140.24c.17-.01.34-.11.44-.26.17-.27.09-.62-.17-.79-.16-.1-3.58-2.77-7.6.24-.25.19-.32.54-.13.8.18.26.51.26.8.13,2.92-1.25,6.19-.29,6.32-.21.11.07.23.1.35.09Z"/>
          <path class="cls-2" d="M965.48,145.58c-.3,1.34.25,2.59,1.22,2.81.97.22,2-.69,2.3-2.03.3-1.34-.25-2.59-1.22-2.81-.97-.22-2,.69-2.3,2.03Z"/>
          <path class="cls-2" d="M990.67,147c.17.05.35.03.51-.08.26-.18.32-.54.14-.8-.11-.15-2.25-3.93-7.12-2.68-.31.08-.5.38-.43.69.07.31.37.43.69.43,3.17-.04,5.83,2.09,5.92,2.22.07.11.18.18.29.22Z"/>
          <path class="cls-2" d="M983.42,149.8c-.78,1.12-.76,2.49.05,3.06.81.57,2.11.12,2.89-1,.78-1.12.76-2.49-.05-3.06-.81-.57-2.11-.12-2.89,1Z"/>
          <g>
            <path class="cls-20" d="M949.76,378.25s27.65-1.57,34.79,4.36c7.14,5.93,11.78,18.9,6.57,16.17-5.21-2.74-10.89-8.07-10.89-8.07,0,0,11.61,11.97,7.64,13.47-3.97,1.5-13.97-9-13.97-9,0,0,12.68,15.34,8.47,15.54s-13.77-11.52-13.77-11.52c0,0,11.23,14.74,6.33,14.87-4.9.12-9.2-12.24-13.18-10.74-3.97,1.5-15.35,10.17-20.88-.36l8.9-24.71Z"/>
            <path class="cls-19" d="M979.95,390.9l.56-.4c-.12-.17-2.93-4.04-5.98-3.97l.02.68c2.7-.05,5.38,3.64,5.41,3.68Z"/>
            <path class="cls-19" d="M973.61,395.36l.56-.39c-.11-.16-2.77-3.97-7.03-4.71l-.12.67c3.96.69,6.55,4.39,6.58,4.42Z"/>
            <path class="cls-19" d="M968.31,399.39l.56-.4c-.14-.2-3.45-4.79-6.71-4.43l.08.68c2.86-.32,6.04,4.1,6.07,4.15Z"/>
          </g>
          <path class="cls-20" d="M847.84,347.74c20.36,33.34,46.43,46.73,93.02,55.22l8.9-24.71c-33.92-6.18-51.29-30.74-64.94-53.09-19.41-31.8-15.92-70.53-13.01-87.65.28-1.62-.37-3.26-1.67-4.26-4.34-3.32-15.57-10.08-35.65-10.47-1.79-.04-3.37,1.16-3.83,2.89-8.4,31.64-8.46,80.09,17.18,122.07Z"/>
          <path class="cls-19" d="M855.55,340.46c-2.39-.97-4.53-3.23-5.73-6.06h0c-2.09-4.95-.8-10.25,2.88-11.82,1.46-.62,3.1-.6,4.75.07,2.39.97,4.53,3.23,5.73,6.06,2.09,4.95.8,10.25-2.88,11.82-.7.3-1.45.45-2.22.45-.82,0-1.67-.17-2.53-.52ZM853.34,324.06c-2.86,1.22-3.77,5.58-2.03,9.71h0c1.03,2.44,2.84,4.38,4.84,5.19,1.24.5,2.45.53,3.51.08,2.86-1.22,3.77-5.58,2.03-9.71-1.03-2.44-2.84-4.38-4.84-5.19-.65-.26-1.3-.4-1.92-.4-.56,0-1.09.11-1.59.32Z"/>
          <g>
            <g>
              <path class="cls-9" d="M1031.58,246.16l-6.02,66.71c-.38,2.87-.95,10.75,17.86,8.83l32.11-4.4c.47.15,3.78-6.45,4.27-6.45l6.69,2.43c1.04,0,2.07-.34,2.96-.99l27.15-19.43c1.38-.99,2.32-2.59,2.57-4.38l7.97-57.02c.65-4.62-3.41-8-7.25-6.03l-22.35,11.47c-.61.31-1.26.5-1.92.55l-10.08.76c-.98.07-.6.39-1.44-.11l-44.52-3.11c-7.02,0-7.45,6.93-8.01,11.16Z"/>
              <path class="cls-2" d="M1084.06,238.34l12.57-.95-8.54,75.9s-.39,6.92-12.56,4.02l8.52-78.96Z"/>
              <path class="cls-14" d="M1041.55,235.14s.89-4.9,7.88-3.07c8.58,2.24,27.97-2.06,32.89-.26s6.95,2.72,6.95,2.72c0,0-.53-4.76,5.99-5.82,6.52-1.07,19.06-5.77,22.1-1.96l-20.73,10.64-12.57.95-42.51-3.2Z"/>
            </g>
            <path class="cls-14" d="M1088.78,234.71l.99-.36c-.03-.07-2.6-6.91-10.39-5.75-5.85.87-11.49,1.03-16.94,1.19-6.03.17-11.73.33-16.61,1.51l.25,1.02c4.77-1.15,10.41-1.31,16.39-1.48,5.48-.16,11.15-.32,17.07-1.2,6.92-1.03,9.15,4.82,9.24,5.07Z"/>
          </g>
          <path class="cls-20" d="M1135.45,261s4.57-10.03-4.61-14.14c-11.71-5.24-31.31-.54-23.94,2.88,6.54,3.03,16.85,5.12,16.85,5.12,0,0-26.3-4.93-25.46.88s23.51,9.74,23.51,9.74c0,0-26.06-2.39-23.48,2.85s23.14,8.93,23.14,8.93c0,0-25.34-3.7-22.21,2.3,3.13,6.01,16.62,5.27,22.41,6.26,5.47.94,7.84-2.28,8.37-7.62,0,0,3.61-5.01,3.08-8.59-.21-1.37,1.25-2.45,1.53-3.38.53-1.79.81-5.22.81-5.22Z"/>
        </g>
        <g>
          <path class="cls-2" d="M537.13,1017.94s-.62,13.66-9.95,17.32c-9.33,3.66-36.19,6.59-26.36,15.58,5.64,5.16,32.78,2.46,40.42,2.62,7.64.16,14.75,3.64,20.54-1.36,6.36-5.5.69-33.64.69-33.64,0,0-6.67,3.3-12.59,3.02-8.54-.4-12.75-3.55-12.75-3.55Z"/>
          <path class="cls-2" d="M455.61,1010.1s-.77,13.65-10.14,17.21c-9.36,3.56-36.26,6.2-26.53,15.29,5.58,5.22,32.75,2.82,40.39,3.06,7.64.24,14.71,3.8,20.55-1.14,6.42-5.43,1.06-33.63,1.06-33.63,0,0-6.7,3.23-12.63,2.89-8.54-.49-12.71-3.68-12.71-3.68Z"/>
          <path class="cls-16" d="M461.85,1021.4c-15.79-1.8-27.38-15.7-26.29-31.55,6.16-89.57,14.5-134.69,44.76-172.01,19.44-23.98,47.84-46.73,81.89-59.17,29.36-10.72,54.1-15.26,86.19-14.37,52.34,1.44,76.21,11.31,76.21,11.31,32.08,84.66-30.08,90.17-75.56,88.48-1.5-.06-3.01-.1-4.53-.14-27.57-.64-76.93,2.13-97.73,27.78-16.47,20.32-29.22,49.73-40.24,127.5-2.11,14.92-15.69,25.47-30.67,23.76l-14.05-1.6Z"/>
          <path class="cls-16" d="M536.9,1032.54c-15.79-1.8-27.38-15.7-26.29-31.55,6.16-89.57,14.5-134.69,44.76-172.01,19.44-23.98,47.04-40.97,82.02-50.49,24.96-6.8,53.9-9.79,85.99-8.91,52.34,1.44,76.28-2.83,76.28-2.83,33.18,107.69-119.09,72.31-163.05,113.18-19.15,17.81-43.99,52.68-55,130.45-2.11,14.92-15.69,25.47-30.67,23.76l-14.05-1.6Z"/>
          <path class="cls-20" d="M640.36,614.65c-4.13,5.33-44.44,51.24-44.95,101.91l37.59-7.6,26.24-64.51-18.88-29.79Z"/>
          <path class="cls-13" d="M785.9,614.99s-16.08-42.56-71.05-39.61c-54.96,2.95-93.57,24.63-101.55,178.03,0,0,75.85-4.31,162.58,46.74,14.6,8.6,37.4,6.86,38.33-10.06,1.86-33.69-5.07-98.05-28.31-175.1Z"/>
          <path class="cls-13" d="M834.18,621.72l-48.3,15.3s-99.99,11.71-126.65,7.43c-26.66-4.27-34.27-25.35-34.27-25.35,0,0,27.83-32.35,75.83-41.72,4.51-.89,9.19-1.56,14.05-2,8.15-.72,15.99-1.47,24-.63,78.2,8.2,95.34,46.96,95.34,46.96Z"/>
          <path class="cls-2" d="M834.18,621.72c2.59,5.76-8.73,11.16-22.6,16.3-13.87,5.14-26.24,6.18-27.63,2.32-1.39-3.86,8.73-11.16,22.6-16.3,13.87-5.14,25.95-6.06,27.63-2.32Z"/>
          <path class="cls-20" d="M696.69,768.73c-9.4-1.4-16.78-4.92-22.34-10.58-10.51-10.68-10.59-25.23-7.47-34.45l12.3-4.9c1.02-3.02,21.15,11.76,21.12,11.74.09.05,9.98,4.57,48.49-8.41,26.81-9.04,42.05-25.25,46.6-49.55,3.43-18.33-2.53-27.73-3.81-32.51-.17-.64,3.31-8.63,17.62-13.36,15.45-5.11,21.07-1.13,21.07-1.13,2.31,8.65,7.01,28.41,2.23,53.96-4.96,26.55-21.46,61.76-71.84,78.74-27.47,9.26-48.47,12.74-63.96,10.44Z"/>
          <g class="cls-5">
            <path class="cls-19" d="M792.88,727.67c-2.23-1.79-1.48-6.36,1.7-10.41,2.08-2.64,4.76-4.45,7-4.7,1.06-.12,1.98.11,2.68.67,2.23,1.79,1.48,6.36-1.7,10.41h0c-2.08,2.64-4.76,4.45-7,4.7-.18.02-.36.03-.54.03-.83,0-1.57-.24-2.14-.7ZM801.52,722.83c2.64-3.36,3.52-7.29,1.91-8.57-.42-.34-1-.47-1.71-.39-1.87.22-4.27,1.87-6.12,4.21-2.64,3.36-3.52,7.29-1.91,8.57.42.34,1,.47,1.71.39,1.87-.21,4.27-1.87,6.12-4.21h0Z"/>
          </g>
          <path class="cls-20" d="M724.75,567.97l-8.28-14.6-2.41-4.25-14.17-24.99,4.74,26.9,2.85,16.15.9,5.11c.61,3.47-1.33,4.65-3.22,8.2-.77,1.44-5.78,10.23,2.45,11.9,10.25,2.09,26.37-7.99,31.22-17.64-.05,0-11.41-2.06-14.09-6.78Z"/>
          <g>
            <path class="cls-2" d="M676.33,518.74s-.27,6.86,3.2,14.62c3.47,7.76,7.37-14.04,7.37-14.04l-10.57-.58Z"/>
            <ellipse class="cls-20" cx="703.36" cy="533.86" rx="24.39" ry="29.4" transform="translate(-42.68 61.47) rotate(-4.86)"/>
            <path class="cls-2" d="M726.45,523.44l-11.79,1.33c-2.59.29-5.21-.56-7.05-2.41-3.17-3.18-6.43-4.46-17.1-1.7-13.51,3.49-24.28-2.66-27.31-9.47-3.09-6.95,2.8-13.4,10.4-11.43,7.6,1.97,2.8-5.89,9.18-8.23,11.92-4.38,16.3,4.6,26.3,2.09,13.11-3.29,38.94,1.57,32.81,27.25l-15.44,2.58Z"/>
            <path class="cls-2" d="M701.84,532.93c-.14-.05-.26-.17-.3-.32-.08-.26.07-.54.33-.62.15-.05,3.61-1.48,6.26,1.95.17.22.14.52-.08.7-.21.17-.48.1-.7-.08-2.14-1.71-5.07-1.66-5.2-1.63-.11.03-.22.03-.31,0Z"/>
            <path class="cls-2" d="M705.29,538.67c-.06,1.18-.8,2.1-1.66,2.05-.85-.04-1.5-1.03-1.44-2.21.06-1.18.8-2.1,1.66-2.05.85.04,1.5,1.03,1.44,2.21Z"/>
            <path class="cls-2" d="M683.66,535.41c-.12,0-.23-.06-.31-.18-.14-.21-.12-.52.04-.69.09-.1,2.12-2.71,5.05-.52.18.14.26.44.16.67-.1.24-.31.27-.52.19-2.04-.79-4.11.34-4.19.42-.07.07-.15.11-.23.11Z"/>
            <path class="cls-2" d="M689.15,539.39c.39,1.11.06,2.25-.75,2.53-.81.29-1.78-.38-2.17-1.5-.39-1.11-.06-2.24.75-2.53.81-.29,1.78.38,2.17,1.5Z"/>
            <path class="cls-2" d="M741.89,520.87s-4.2,18.93-15.22,22.66c0,0,6.27-15.09-14.72-18.86,0,0,17.06-6.64,29.94-3.79Z"/>
            <path class="cls-20" d="M728.05,533.83c-2.08,2.06-5.26,2.23-7.11.37-1.85-1.86-1.66-5.04.42-7.1s5.26-2.23,7.11-.37c1.85,1.86,1.66,5.04-.42,7.1Z"/>
            <path class="cls-2" d="M711.95,524.66s4.7,14.08,2.36,17.45c-2.34,3.37-21.46,8.78-31.27,7.26h0c1.87,9.29,10.19,16.04,19.66,15.58,3.13-.15,6.26-.83,9.25-2.06h0c6.09-2.49,11.67-6.46,13-12.9.4-1.96-4.31-12.45-4.31-12.45,0,0-2.28-6.26.74-10.44,0,0-5.19-2.95-9.42-2.45Z"/>
            <path class="cls-7" d="M688.94,553.53s7.87.39,15.81-2.17c0,0,.45,7.77-8.08,8.07-4.96.17-7.72-5.9-7.72-5.9Z"/>
            <path class="cls-2" d="M674.62,498.35c3.78-.7,3.42-3.97,3.42-4.01l-.66.08c.01.11.28,2.68-2.88,3.27l.12.65Z"/>
            <path class="cls-7" d="M685.81,517.68l.02-.33c-.16-.01-15.59-1.14-17.82-8.47-.63-2.07-.58-3.55.14-4.52,1.17-1.55,3.92-1.51,6.34-1.48.37,0,.72.01,1.09,0v-.33c-.34,0-.71,0-1.08,0-2.51-.03-5.34-.07-6.61,1.61-.8,1.06-.86,2.63-.19,4.81.95,3.13,4.4,5.63,9.96,7.23,4.17,1.2,8.12,1.47,8.16,1.48Z"/>
            <path class="cls-7" d="M705.01,496.98c2.99,0,6.45-.51,10.32-1.92l-.11-.31c-13.73,5.01-22.28-1.45-22.37-1.52l-.2.26c.06.05,4.61,3.49,12.37,3.49Z"/>
          </g>
          <path class="cls-2" d="M514.61,950.62h.6c0-.34.05-34.44,12.72-71.06,7.44-21.49,17.7-39.64,30.52-53.93,16-17.85,36.05-29.71,59.58-35.24l-.14-.58c-23.66,5.56-43.81,17.48-59.9,35.43-12.86,14.35-23.17,32.57-30.63,54.14-12.7,36.72-12.75,70.9-12.75,71.24Z"/>
          <g>
            <path class="cls-11" d="M688.98,698.46l-6.46,69.62c-.25,2.73-2.34,4.87-4.96,5.11l-49.79,4.52c-.51.05-1.02.02-1.52-.08l-9.88-2c-1.04-.21-2.01-.74-2.77-1.51l-19.51-19.81c-1.17-1.19-3.78-4.04-3.64-5.74l4.95-65.49c0-8.91,5.55-10.23,8.98-7.64l18.54,28.08c.55.41.33.09.99.27l9.99,2.74c.97.27,1.99.25,2.95-.05l45.13-14.02c3.71-1.15,7.36,1.98,6.99,5.99Z"/>
            <path class="cls-2" d="M635.39,706.95l-12.46-3.42-8.16,71.79s3.06,4.95,12.23,2.48l8.38-70.84Z"/>
            <path class="cls-14" d="M678.68,693.5s-3.87-2.8-12.79-.95c-8.92,1.86-22.18,5.97-27.53,6.63-5.35.66-7.39,3.18-7.39,3.18,0,0,1.59-4.29-4.75-6.59-6.34-2.3-16.62-21.21-20.52-18.31l17.23,26.04,12.46,3.42,43.29-13.44Z"/>
            <path class="cls-14" d="M631.49,702.46s.58-2.59,7.57-4.08c1.71-.36,4.04-1.02,6.74-1.78,9.08-2.55,22.8-6.41,29.37-3.49l.42-.95c-6.91-3.08-20.85.84-30.08,3.44-2.68.75-5,1.4-6.67,1.76-7.7,1.63-8.34,4.6-8.39,4.94l1.03.16Z"/>
          </g>
          <g>
            <path class="cls-20" d="M696.25,727.72s-6.06-18.34-16.44-22.84c-10.38-4.49-27.03-2.38-21.19,1.77,5.84,4.15,14.77,7.39,14.77,7.39,0,0-19.4-6.03-18.85-.88.56,5.15,17.48,10.23,17.48,10.23,0,0-23.66-5.33-21.56-.64,2.1,4.69,20.1,8.62,20.1,8.62,0,0-22.21-4.08-19.65,1.31,2.57,5.39,18.38,3.25,18.93,8.4.56,5.15,4.5,25.41,19,25.61l7.39-38.98Z"/>
            <path class="cls-19" d="M680.32,718.31l.75-.36c-1.6-3.36-7.36-4.28-7.61-4.32l-.13.82c.06,0,5.57.89,6.98,3.85Z"/>
            <path class="cls-19" d="M680.41,728.52l.67-.5c-3.15-4.21-8.75-5.01-8.99-5.04l-.11.83c.05,0,5.5.79,8.43,4.71Z"/>
            <path class="cls-19" d="M678.36,736.1l.78-.29c-1.4-3.73-8.22-4.8-8.51-4.85l-.13.82c.07.01,6.63,1.05,7.85,4.31Z"/>
          </g>
          <path class="cls-20" d="M582.26,729.65s-.81,10.64,8.91,11.3c12.38.85,28.61-9.95,20.78-10.6-6.95-.57-17.01.97-17.01.97,0,0,25.53-4.29,22.82-9.29-2.7-5-24.6-1.01-24.6-1.01,0,0,24.46-6.52,20.38-10.42-4.08-3.89-23.99-.39-23.99-.39,0,0,24.25-5.09,19.4-9.5-4.85-4.41-16.85.76-22.44,1.79-5.28.97-6.36,4.69-5.06,9.72,0,0-1.61,5.76.07,8.82.64,1.18-.32,2.64-.26,3.58.11,1.8,1,5.01,1,5.01Z"/>
        </g>
      </g>
      <g>
        <g>
          <path class="cls-11" d="M615.49,256.92l-54.25,41.67c-.28.21-.67.16-.89-.11-28.05-36.02-83.63-33.03-89.86-32.57-35.51,3.11-68.83-13.32-101.86-50.24-18.22-20.37-26.73-47.98-23.95-77.72,3.7-39.67,26.71-79.33,61.54-106.08l.39.5-.39-.5C435.54,9.33,473.86.25,514.1,6.28c38.08,5.71,71.71,24.13,92.28,50.54,24.55,31.52,26.12,70.3,4.42,109.16-13.38,26.1-11.36,49.18-7.32,63.95,4.39,16.03,12.05,26.01,12.13,26.1.1.13.15.3.13.47-.01.1-.05.2-.11.29-.04.05-.08.1-.13.14ZM345.94,138.05c-2.74,29.39,5.65,56.65,23.64,76.76,32.74,36.6,65.71,52.9,100.81,49.82,6.29-.46,62-3.45,90.58,32.56l53.26-40.91c-1.62-2.25-8.06-11.79-11.96-25.98-4.12-15-6.18-38.43,7.41-64.94,21.45-38.41,19.92-76.69-4.3-107.78-20.07-25.77-54.26-44.48-91.46-50.06-39.9-5.98-77.87,3.01-106.92,25.33-13.29,10.2-24.83,22.3-34.23,35.55-15.04,21.22-24.56,45.43-26.82,69.64Z"/>
          <g class="cls-8">
            <path class="cls-11" d="M498.3,55.86c-18.72-5.64-37.92,1.93-38.11,2-.1.04-.22.06-.33.04-4.04-.61-6.57-2.22-7.51-4.78-1.8-4.89,2.15-12.8,12.07-24.19,3.69-4.24,10.94-7.06,19.4-7.54,10.97-.62,21.43,2.58,27.96,8.56,6.54,5.99,8.63,14.54,5.08,20.79-.21.36-.43.71-.66,1.04-3.48,4.9-10.06,6.43-17.89,4.07ZM453.53,52.68c.76,2.06,2.89,3.39,6.35,3.94,1.95-.74,20.56-7.47,38.78-1.98,7.76,2.34,14.14.65,17.08-4.53,3.26-5.73,1.27-13.64-4.83-19.23-6.29-5.76-16.39-8.83-27.03-8.23-8.12.46-15.04,3.12-18.51,7.1-2.57,2.95-4.73,5.67-6.49,8.15-4.71,6.65-6.51,11.6-5.34,14.77ZM459.94,57.28h0s0,0,0,0Z"/>
          </g>
        </g>
        <g>
          <path class="cls-3" d="M415.56,27.22c62.18-47.76,157.8-28.4,199.27,24.85,26.06,33.46,24.53,72.35,4.35,108.48-26.1,50.91,4.88,90.73,4.88,90.73l-54.25,41.67c-28.16-36.16-83.45-33.33-90.42-32.82-32.96,2.89-66.33-10.91-101.33-50.03-45.01-50.32-24.68-135.12,37.5-182.88Z"/>
          <path class="cls-12" d="M557.3,280.49s-15.15,15.66,3.79,31.52c0,0-2.06,22.17,17.72,24.07,0,0,.72,20.98,20.34,26.81,19.62,5.83,84.96-53.86,84.91-65.22s-9.28-17.57-16.72-15.02c0,0,3.27-12.86-5.19-19.23-8.47-6.37-14.03-4.64-14.03-4.64,0,0,3.52-8.41-4.23-19.55-7.75-11.15-30.62-15.57-86.59,41.26Z"/>
          <g class="cls-8">
            <path class="cls-7" d="M468.91,52.14s19.36-7.8,38.53-2.02c19.17,5.78,25.51-13.25,12.86-24.83-12.65-11.58-38.12-10.64-46.45-1.08-8.33,9.57-20.24,25.62-4.94,27.93Z"/>
          </g>
          <path class="cls-2" d="M579.56,337.37c.2-.12.38-.28.51-.49.05-.07,4.68-7.21,13.48-15.73,8.1-7.84,21.48-18.51,39.28-24.77.78-.28,1.19-1.13.91-1.91-.27-.78-1.13-1.19-1.91-.92-18.34,6.46-32.11,17.44-40.43,25.51-9.02,8.75-13.65,15.9-13.85,16.2-.45.7-.25,1.62.45,2.07.49.31,1.09.31,1.56.04Z"/>
          <path class="cls-2" d="M561.84,313.3c.16-.09.3-.21.42-.36.07-.09,7.12-8.86,17.64-18.61,9.66-8.94,24.3-20.57,39.22-25.12.79-.24,1.24-1.08.99-1.87-.24-.79-1.08-1.24-1.87-.99-15.48,4.73-30.52,16.65-40.41,25.82-10.68,9.9-17.84,18.82-17.91,18.91-.52.65-.41,1.59.24,2.1.49.39,1.16.43,1.68.13Z"/>
        </g>
        <g class="cls-8">
          <path class="cls-7" d="M594.08,248.36c-1.52-1.72-25.23-28.58-43-55.07-.81.67-1.64,1.33-2.5,1.97-2.39,1.79-4.96,3.45-7.67,4.96,4.49,6.77,8.83,13.99,12.61,20.44,12.42,21.19,23,42.24,23.11,42.45l-5.19,2.61c-.1-.21-10.61-21.11-22.94-42.14-4.93-8.4-9.18-15.2-12.84-20.68-3.96,1.82-8.09,3.32-12.24,4.41-12.5,3.28-23.11,2.51-28.38-2.07-5.36-4.66-6.58-11.8-3.17-18.63,3.9-7.83,13.62-14.51,24.66-12.16,5.82,1.24,13.51,10.08,21.09,20.94,3.57-1.96,7.06-4.29,10.25-6.99-8.22-12.79-14.64-25.13-16.03-34.08-1.61-10.38,2.84-14.57,5.64-16.15,5.61-3.16,13.95-1.43,20.75,4.3,8.98,7.57,11.94,18.84,7.91,30.16-2.13,5.98-5.79,11.65-10.74,16.69,17.88,26.7,42.65,54.77,43.02,55.19l-4.35,3.85ZM537.57,153.41c1.23,7.95,7.02,19.11,14.56,30.91,3.69-3.94,6.69-8.49,8.53-13.65,4.71-13.25-3.54-21.55-6.18-23.77-4.8-4.05-10.76-5.59-14.16-3.68-.67.38-1.21.88-1.63,1.47-1.73,2.44-1.49,6.32-1.12,8.72ZM497.06,189.18c-1.06,2.12-3,7.5,1.78,11.65,3.65,3.17,12.93,3.51,23.09.84,3.29-.86,6.82-2.09,10.38-3.67-10.35-14.71-15.13-17.49-17-17.89-7.09-1.51-13.64,2.27-17.04,7.06-.46.65-.87,1.33-1.21,2.01Z"/>
        </g>
      </g>
    </g>
  </g>
</svg>